<?xml version="1.0"?>
<svg xmlns="http://www.w3.org/2000/svg" height="512px" viewBox="0 0 512 512" width="512px" class=""><g><path d="m482 40h-35.46875c0-22.054688-17.945312-40-40-40-22.082031 0-40 17.859375-39.53125 40h-70.46875c0-22.054688-17.945312-40-40-40-22.082031 0-40 17.859375-39.53125 40h-70.46875c0-22.054688-17.945312-40-40-40-22.082031 0-40 17.859375-39.53125 40h-37c-16.542969 0-30 13.457031-30 30v412c0 16.542969 13.457031 30 30 30h452c16.542969 0 30-13.457031 30-30v-412c0-16.542969-13.457031-30-30-30zm-95.003906-.28125c-.3125-10.988281 8.636718-19.71875 19.535156-19.71875 11.027344 0 20 8.972656 20 20h-39.53125c0-.09375 0-.1875-.003906-.28125zm-150 0c-.3125-10.988281 8.636718-19.71875 19.535156-19.71875 11.027344 0 20 8.972656 20 20h-39.53125c0-.09375 0-.1875-.003906-.28125zm-150 0c-.3125-10.988281 8.636718-19.71875 19.535156-19.71875 11.027344 0 20 8.972656 20 20h-39.53125c0-.09375 0-.1875-.003906-.28125zm395.003906 452.28125h-452c-5.515625 0-10-4.484375-10-10v-342h191c5.523438 0 10-4.476562 10-10s-4.476562-10-10-10h-191v-50c0-5.515625 4.484375-10 10-10h37v30c0 5.523438 4.476562 10 10 10s10-4.476562 10-10v-30h130v30c0 5.523438 4.476562 10 10 10s10-4.476562 10-10v-30h130v30c0 5.523438 4.476562 10 10 10s10-4.476562 10-10v-30h95c5.515625 0 10 4.484375 10 10v50h-191c-5.523438 0-10 4.476562-10 10s4.476562 10 10 10h191v342c0 5.515625-4.484375 10-10 10zm0 0" data-original="#000000" class="active-path" data-old_color="#000000" fill="#FFFFFF"/><path d="m376 276h-80v-80c0-5.523438-4.476562-10-10-10h-60c-5.523438 0-10 4.476562-10 10v80h-80c-5.523438 0-10 4.476562-10 10v60c0 5.523438 4.476562 10 10 10h80v80c0 5.523438 4.476562 10 10 10h60c5.523438 0 10-4.476562 10-10v-80h80c5.523438 0 10-4.476562 10-10v-60c0-5.523438-4.476562-10-10-10zm-10 60h-80c-5.523438 0-10 4.476562-10 10v80h-40v-80c0-5.523438-4.476562-10-10-10h-80v-40h80c5.523438 0 10-4.476562 10-10v-80h40v80c0 5.523438 4.476562 10 10 10h80zm0 0" data-original="#000000" class="active-path" data-old_color="#000000" fill="#FFFFFF"/><path d="m266 130c0 5.523438-4.476562 10-10 10s-10-4.476562-10-10 4.476562-10 10-10 10 4.476562 10 10zm0 0" data-original="#000000" class="active-path" data-old_color="#000000" fill="#FFFFFF"/></g> </svg>
