<?xml version="1.0"?>
<svg xmlns="http://www.w3.org/2000/svg" id="Layer_1" height="512px" viewBox="0 0 128 128" width="512px" data-name="Layer 1" class=""><g><path d="m51.5 43.442h5.75v5.75a1.75 1.75 0 0 0 1.75 1.75h10a1.75 1.75 0 0 0 1.75-1.75v-5.75h5.75a1.75 1.75 0 0 0 1.75-1.75v-10a1.75 1.75 0 0 0 -1.75-1.75h-5.75v-5.75a1.75 1.75 0 0 0 -1.75-1.75h-10a1.75 1.75 0 0 0 -1.75 1.75v5.75h-5.75a1.75 1.75 0 0 0 -1.75 1.75v10a1.75 1.75 0 0 0 1.75 1.75zm1.75-10h5.75a1.75 1.75 0 0 0 1.75-1.75v-5.75h6.5v5.75a1.75 1.75 0 0 0 1.75 1.75h5.75v6.5h-5.75a1.75 1.75 0 0 0 -1.75 1.75v5.75h-6.5v-5.75a1.75 1.75 0 0 0 -1.75-1.75h-5.75z" data-original="#000000" class="active-path" data-old_color="#000000" fill="#FFFFFF"/><path d="m57.438 69.5a1.75 1.75 0 0 0 1.75-1.75v-10a1.75 1.75 0 0 0 -1.75-1.75h-10a1.75 1.75 0 0 0 -1.75 1.75v10a1.75 1.75 0 0 0 1.75 1.75zm-8.25-10h6.5v6.5h-6.5z" data-original="#000000" class="active-path" data-old_color="#000000" fill="#FFFFFF"/><path d="m68.813 57.75v10a1.75 1.75 0 0 0 1.75 1.75h10a1.75 1.75 0 0 0 1.75-1.75v-10a1.75 1.75 0 0 0 -1.75-1.75h-10a1.75 1.75 0 0 0 -1.75 1.75zm3.5 1.75h6.5v6.5h-6.5z" data-original="#000000" class="active-path" data-old_color="#000000" fill="#FFFFFF"/><path d="m121.5 40.135h-27v-33.635a1.75 1.75 0 0 0 -1.75-1.75h-57.5a1.75 1.75 0 0 0 -1.75 1.75v33.635h-27a1.75 1.75 0 0 0 -1.75 1.75v79.615a1.75 1.75 0 0 0 1.75 1.75h115a1.75 1.75 0 0 0 1.75-1.75v-79.615a1.75 1.75 0 0 0 -1.75-1.75zm-113.25 3.5h25.25v76.115h-25.25zm28.75-1.75v-33.635h54v111.5h-11.47v-38.058a1.75 1.75 0 0 0 -1.75-1.75h-27.56a1.75 1.75 0 0 0 -1.75 1.75v38.058h-11.47zm14.97 41.557h10.28v36.308h-10.28zm13.78 36.308v-36.308h10.28v36.308zm54 0h-25.25v-76.115h25.25z" data-original="#000000" class="active-path" data-old_color="#000000" fill="#FFFFFF"/><path d="m102.125 69.5h10a1.75 1.75 0 0 0 1.75-1.75v-10a1.75 1.75 0 0 0 -1.75-1.75h-10a1.75 1.75 0 0 0 -1.75 1.75v10a1.75 1.75 0 0 0 1.75 1.75zm1.75-10h6.5v6.5h-6.5z" data-original="#000000" class="active-path" data-old_color="#000000" fill="#FFFFFF"/><path d="m102.125 91.192h10a1.75 1.75 0 0 0 1.75-1.75v-10a1.75 1.75 0 0 0 -1.75-1.75h-10a1.75 1.75 0 0 0 -1.75 1.75v10a1.75 1.75 0 0 0 1.75 1.75zm1.75-10h6.5v6.5h-6.5z" data-original="#000000" class="active-path" data-old_color="#000000" fill="#FFFFFF"/><path d="m102.125 112.885h10a1.75 1.75 0 0 0 1.75-1.75v-10a1.75 1.75 0 0 0 -1.75-1.75h-10a1.75 1.75 0 0 0 -1.75 1.75v10a1.75 1.75 0 0 0 1.75 1.75zm1.75-10h6.5v6.5h-6.5z" data-original="#000000" class="active-path" data-old_color="#000000" fill="#FFFFFF"/><path d="m25.875 56h-10a1.75 1.75 0 0 0 -1.75 1.75v10a1.75 1.75 0 0 0 1.75 1.75h10a1.75 1.75 0 0 0 1.75-1.75v-10a1.75 1.75 0 0 0 -1.75-1.75zm-1.75 10h-6.5v-6.5h6.5z" data-original="#000000" class="active-path" data-old_color="#000000" fill="#FFFFFF"/><path d="m25.875 77.692h-10a1.75 1.75 0 0 0 -1.75 1.75v10a1.75 1.75 0 0 0 1.75 1.75h10a1.75 1.75 0 0 0 1.75-1.75v-10a1.75 1.75 0 0 0 -1.75-1.75zm-1.75 10h-6.5v-6.5h6.5z" data-original="#000000" class="active-path" data-old_color="#000000" fill="#FFFFFF"/><path d="m25.875 99.385h-10a1.75 1.75 0 0 0 -1.75 1.75v10a1.75 1.75 0 0 0 1.75 1.75h10a1.75 1.75 0 0 0 1.75-1.75v-10a1.75 1.75 0 0 0 -1.75-1.75zm-1.75 10h-6.5v-6.5h6.5z" data-original="#000000" class="active-path" data-old_color="#000000" fill="#FFFFFF"/></g> </svg>
